<svg width="50" height="50" viewBox="0 0 45 46" fill="none" xmlns="http://www.w3.org/2000/svg">
<mask id="path-1-inside-1_345_1174" fill="white">
<path d="M33.7457 20.3425C33.7522 20.3205 33.7564 20.2977 33.7626 20.2756C33.9476 19.6061 34.0261 18.9079 33.9924 18.2053C33.9876 18.1025 33.9783 18 33.9687 17.8972C33.9194 17.375 33.8119 16.8529 33.6359 16.3409C33.4 15.6536 33.0593 15.0235 32.6203 14.4596C32.4739 14.2717 32.3165 14.091 32.1484 13.9181C31.9398 13.7035 31.7182 13.5048 31.489 13.3273C31.4192 13.2728 31.3451 13.2245 31.2733 13.1729C31.2057 13.1249 31.1401 13.0736 31.0709 13.0281C30.3841 12.5795 29.6121 12.2743 28.8096 12.1246C28.6077 12.0869 28.4045 12.0559 28.1995 12.0386C28.0294 12.0241 27.8588 12.0168 27.6876 12.0168C26.2128 12.0168 24.8159 12.5338 23.6914 13.4842C23.5306 13.6201 23.3757 13.7646 23.2265 13.9178L21.5582 15.6334C21.5416 15.6504 21.5199 15.6588 21.4985 15.6588C21.4769 15.6588 21.4552 15.6504 21.4389 15.6334L20.1884 14.3475L19.7706 13.9178C19.0284 13.1544 18.1071 12.5897 17.1062 12.2847C16.9626 12.241 16.8181 12.2031 16.6734 12.1703C16.6244 12.159 16.5751 12.1518 16.5259 12.1417C16.4298 12.1223 16.3338 12.1026 16.2375 12.0878C16.1787 12.0788 16.1196 12.0733 16.0607 12.0661C15.974 12.0554 15.8876 12.0444 15.8008 12.0374C15.7378 12.0322 15.6747 12.0305 15.6113 12.0276C15.5288 12.0235 15.4463 12.0192 15.3638 12.0186C15.3177 12.0183 15.2715 12.0203 15.2256 12.0209C15.0758 12.0229 14.9266 12.0305 14.7782 12.0435C14.7354 12.0473 14.6926 12.0499 14.6501 12.0545C14.4718 12.0739 14.2947 12.1005 14.1193 12.135C14.0816 12.1425 14.0444 12.1521 14.0067 12.1602C13.8609 12.1918 13.7164 12.2291 13.5731 12.2711C13.5283 12.2841 13.4836 12.2969 13.4391 12.3111C13.2682 12.3655 13.0992 12.4263 12.9331 12.4958C12.9041 12.508 12.8759 12.5222 12.8472 12.5346C12.705 12.5966 12.5654 12.6644 12.4277 12.7374C12.3849 12.76 12.3418 12.7825 12.2996 12.8063C12.1402 12.8955 11.9831 12.9896 11.8311 13.0933C11.8147 13.1043 11.7992 13.1167 11.7832 13.128C11.6452 13.2239 11.5109 13.3267 11.3797 13.4344C11.3414 13.4657 11.3034 13.4973 11.266 13.5297C11.1227 13.6528 10.9824 13.7805 10.8487 13.9181C9.21084 15.6009 8.60238 18.0672 9.26124 20.3538C9.55772 21.3834 10.1068 22.3309 10.849 23.0943L11.2668 23.5241L12.3376 24.6254L18.8434 31.3169L18.985 31.4626L21.4985 34.0478L32.1889 23.0506C32.9337 22.271 33.4585 21.3402 33.7457 20.3425Z"/>
</mask>
<path d="M33.7457 20.3425L33.266 20.2014L33.2652 20.2042L33.7457 20.3425ZM33.7626 20.2756L34.2439 20.4111L34.2445 20.4088L33.7626 20.2756ZM33.9924 18.2053L33.4929 18.2286L33.4929 18.2293L33.9924 18.2053ZM33.9687 17.8972L34.4666 17.8508L34.4665 17.8502L33.9687 17.8972ZM33.6359 16.3409L33.163 16.5032L33.163 16.5034L33.6359 16.3409ZM32.6203 14.4596L33.0148 14.1525L33.0147 14.1523L32.6203 14.4596ZM31.489 13.3273L31.1815 13.7216L31.1828 13.7226L31.489 13.3273ZM31.2733 13.1729L31.5649 12.7668L31.5631 12.7655L31.2733 13.1729ZM31.0709 13.0281L31.3452 12.6101L31.3443 12.6095L31.0709 13.0281ZM28.8096 12.1246L28.9013 11.6331L28.9013 11.6331L28.8096 12.1246ZM28.1995 12.0386L28.1571 12.5368L28.1572 12.5368L28.1995 12.0386ZM23.6914 13.4842L24.014 13.8662L24.0141 13.8661L23.6914 13.4842ZM23.2265 13.9178L22.8683 13.5689L22.868 13.5692L23.2265 13.9178ZM21.5582 15.6334L21.1998 15.2848L21.1997 15.2848L21.5582 15.6334ZM21.4389 15.6334L21.8003 15.2879L21.7973 15.2848L21.4389 15.6334ZM20.1884 14.3475L19.8299 14.6961L19.83 14.6961L20.1884 14.3475ZM19.7706 13.9178L19.4121 14.2663V14.2663L19.7706 13.9178ZM17.1062 12.2847L17.2519 11.8064L17.2518 11.8064L17.1062 12.2847ZM16.6734 12.1703L16.5611 12.6576L16.5631 12.658L16.6734 12.1703ZM16.5259 12.1417L16.6266 11.6519L16.6249 11.6516L16.5259 12.1417ZM16.2375 12.0878L16.3133 11.5936L16.3129 11.5935L16.2375 12.0878ZM16.0607 12.0661L15.9994 12.5623L15.9997 12.5623L16.0607 12.0661ZM15.8008 12.0374L15.7596 12.5357L15.7609 12.5358L15.8008 12.0374ZM15.6113 12.0276L15.5868 12.527L15.5885 12.527L15.6113 12.0276ZM15.3638 12.0186L15.3674 11.5186L15.367 11.5186L15.3638 12.0186ZM15.2256 12.0209L15.2193 11.5209L15.2188 11.5209L15.2256 12.0209ZM14.7782 12.0435L14.7344 11.5454L14.7344 11.5454L14.7782 12.0435ZM14.6501 12.0545L14.7042 12.5516L14.7043 12.5516L14.6501 12.0545ZM14.1193 12.135L14.0229 11.6444L14.0215 11.6447L14.1193 12.135ZM14.0067 12.1602L13.9016 11.6714L13.9009 11.6715L14.0067 12.1602ZM13.5731 12.2711L13.7128 12.7512L13.7137 12.7509L13.5731 12.2711ZM13.4391 12.3111L13.5908 12.7875L13.591 12.7874L13.4391 12.3111ZM12.9331 12.4958L12.7401 12.0346L12.7397 12.0348L12.9331 12.4958ZM12.8472 12.5346L12.6483 12.0759L12.6475 12.0763L12.8472 12.5346ZM12.4277 12.7374L12.6611 13.1796L12.6619 13.1791L12.4277 12.7374ZM12.2996 12.8063L12.5438 13.2426L12.5446 13.2421L12.2996 12.8063ZM11.8311 13.0933L12.1105 13.5079L12.1128 13.5064L11.8311 13.0933ZM11.7832 13.128L12.0685 13.5387L12.071 13.5369L11.7832 13.128ZM11.3797 13.4344L11.696 13.8217L11.697 13.8209L11.3797 13.4344ZM11.266 13.5297L11.5917 13.909L11.5933 13.9077L11.266 13.5297ZM10.8487 13.9181L11.207 14.2668L11.2072 14.2666L10.8487 13.9181ZM9.26124 20.3538L9.74171 20.2155L9.74169 20.2154L9.26124 20.3538ZM10.849 23.0943L11.2075 22.7458L10.849 23.0943ZM11.2668 23.5241L10.9083 23.8726H10.9083L11.2668 23.5241ZM12.3376 24.6254L12.6961 24.2769L12.3376 24.6254ZM18.8434 31.3169L19.2019 30.9684L18.8434 31.3169ZM21.4985 34.0478L21.1401 34.3964L21.4986 34.7651L21.8571 34.3963L21.4985 34.0478ZM32.1889 23.0506L32.5475 23.3991L32.5505 23.396L32.1889 23.0506ZM34.2254 20.4837C34.233 20.4577 34.2385 20.4339 34.241 20.4236C34.2444 20.409 34.2444 20.4095 34.2439 20.4111L33.2813 20.1402C33.2746 20.1638 33.2694 20.1867 33.2675 20.1946C33.2647 20.2067 33.2649 20.2054 33.266 20.2014L34.2254 20.4837ZM34.2445 20.4088C34.4436 19.6882 34.5281 18.9369 34.4918 18.1813L33.4929 18.2293C33.5242 18.8788 33.4515 19.524 33.2807 20.1425L34.2445 20.4088ZM34.4918 18.182C34.4864 18.0662 34.4761 17.9529 34.4666 17.8508L33.4709 17.9435C33.4805 18.0471 33.4887 18.1388 33.4929 18.2286L34.4918 18.182ZM34.4665 17.8502C34.4137 17.2912 34.2984 16.7301 34.1088 16.1783L33.163 16.5034C33.3254 16.9756 33.4251 17.4588 33.4709 17.9441L34.4665 17.8502ZM34.1088 16.1785C33.8551 15.4396 33.4881 14.7604 33.0148 14.1525L32.2258 14.7668C32.6304 15.2865 32.9448 15.8677 33.163 16.5032L34.1088 16.1785ZM33.0147 14.1523C32.857 13.9499 32.6876 13.7554 32.5069 13.5695L31.7899 14.2666C31.9453 14.4265 32.0907 14.5934 32.2259 14.7669L33.0147 14.1523ZM32.5069 13.5695C32.2826 13.3388 32.0436 13.1244 31.7952 12.932L31.1828 13.7226C31.3928 13.8852 31.5969 14.0681 31.7899 14.2666L32.5069 13.5695ZM31.7964 12.933C31.7182 12.872 31.6108 12.7997 31.5649 12.7668L30.9817 13.5791C31.0794 13.6492 31.1201 13.6737 31.1815 13.7216L31.7964 12.933ZM31.5631 12.7655C31.5226 12.7366 31.4224 12.6608 31.3452 12.6101L30.7965 13.4461C30.8579 13.4864 30.8889 13.5131 30.9835 13.5803L31.5631 12.7655ZM31.3443 12.6095C30.6011 12.124 29.767 11.7946 28.9013 11.6331L28.7179 12.6161C29.4571 12.754 30.1672 13.035 30.7974 13.4467L31.3443 12.6095ZM28.9013 11.6331C28.689 11.5935 28.4684 11.5596 28.2417 11.5404L28.1572 12.5368C28.3405 12.5523 28.5265 12.5804 28.718 12.6161L28.9013 11.6331ZM28.2419 11.5404C28.0577 11.5247 27.8729 11.5168 27.6876 11.5168V12.5168C27.8447 12.5168 28.0011 12.5235 28.1571 12.5368L28.2419 11.5404ZM27.6876 11.5168C26.0934 11.5168 24.5825 12.0764 23.3686 13.1024L24.0141 13.8661C25.0494 12.9911 26.3321 12.5168 27.6876 12.5168V11.5168ZM23.3687 13.1023C23.1952 13.2488 23.0286 13.4044 22.8683 13.5689L23.5847 14.2667C23.7229 14.1248 23.8659 13.9913 24.014 13.8662L23.3687 13.1023ZM22.868 13.5692L21.1998 15.2848L21.9167 15.9819L23.585 14.2664L22.868 13.5692ZM21.1997 15.2848C21.2799 15.2024 21.3887 15.1588 21.4985 15.1588V16.1588C21.6512 16.1588 21.8034 16.0985 21.9167 15.9819L21.1997 15.2848ZM21.4985 15.1588C21.6065 15.1588 21.7176 15.2014 21.8003 15.2879L21.0774 15.9788C21.1927 16.0995 21.3473 16.1588 21.4985 16.1588V15.1588ZM21.7973 15.2848L20.5469 13.999L19.83 14.6961L21.0804 15.9819L21.7973 15.2848ZM20.5469 13.999L20.1291 13.5692L19.4121 14.2663L19.8299 14.6961L20.5469 13.999ZM20.1291 13.5692C19.3291 12.7465 18.3351 12.1364 17.2519 11.8064L16.9604 12.763C17.8792 13.0429 18.7276 13.5623 19.4121 14.2663L20.1291 13.5692ZM17.2518 11.8064C17.0959 11.7589 16.9397 11.7179 16.7837 11.6826L16.5631 12.658C16.6966 12.6882 16.8292 12.723 16.9605 12.763L17.2518 11.8064ZM16.7857 11.6831C16.7492 11.6747 16.715 11.6683 16.6895 11.6637C16.6608 11.6585 16.6441 11.6555 16.6266 11.6519L16.4251 12.6314C16.5252 12.652 16.506 12.6449 16.5611 12.6576L16.7857 11.6831ZM16.6249 11.6516C16.5323 11.6329 16.4237 11.6105 16.3133 11.5936L16.1617 12.582C16.2439 12.5946 16.3274 12.6117 16.4268 12.6318L16.6249 11.6516ZM16.3129 11.5935C16.2458 11.5833 16.1597 11.5745 16.1218 11.5698L15.9997 12.5623C16.0794 12.5721 16.1115 12.5744 16.1621 12.5821L16.3129 11.5935ZM16.122 11.5699C16.039 11.5596 15.9406 11.547 15.8408 11.539L15.7609 12.5358C15.8345 12.5417 15.909 12.5511 15.9994 12.5623L16.122 11.5699ZM15.842 11.5391C15.7667 11.5329 15.6855 11.5304 15.6342 11.5281L15.5885 12.527C15.6639 12.5305 15.7088 12.5315 15.7596 12.5357L15.842 11.5391ZM15.6359 11.5282C15.5569 11.5243 15.4627 11.5193 15.3674 11.5186L15.3603 12.5186C15.43 12.5191 15.5007 12.5227 15.5868 12.527L15.6359 11.5282ZM15.367 11.5186C15.3187 11.5183 15.2401 11.5207 15.2193 11.5209L15.2319 12.5209C15.3029 12.52 15.3166 12.5183 15.3607 12.5186L15.367 11.5186ZM15.2188 11.5209C15.0568 11.5231 14.8952 11.5313 14.7344 11.5454L14.8219 12.5416C14.9579 12.5296 15.0948 12.5227 15.2324 12.5209L15.2188 11.5209ZM14.7344 11.5454C14.7117 11.5474 14.6431 11.5523 14.5959 11.5574L14.7043 12.5516C14.742 12.5474 14.7591 12.5471 14.822 12.5416L14.7344 11.5454ZM14.596 11.5574C14.4042 11.5783 14.213 11.607 14.0229 11.6444L14.2157 12.6256C14.3765 12.594 14.5395 12.5695 14.7042 12.5516L14.596 11.5574ZM14.0215 11.6447C13.9907 11.6508 13.9017 11.6714 13.9016 11.6714L14.1118 12.649C14.1872 12.6328 14.1725 12.6342 14.2172 12.6253L14.0215 11.6447ZM13.9009 11.6715C13.7421 11.7059 13.586 11.7463 13.4325 11.7913L13.7137 12.7509C13.8468 12.7119 13.9796 12.6776 14.1125 12.6489L13.9009 11.6715ZM13.4334 11.791C13.3927 11.8029 13.3394 11.818 13.2871 11.8347L13.591 12.7874C13.6277 12.7757 13.664 12.7654 13.7128 12.7512L13.4334 11.791ZM13.2873 11.8347C13.1047 11.8929 12.9217 11.9586 12.7401 12.0346L13.1261 12.9571C13.2767 12.8941 13.4317 12.8382 13.5908 12.7875L13.2873 11.8347ZM12.7397 12.0348C12.7155 12.0449 12.6935 12.0551 12.6793 12.0617C12.6627 12.0695 12.6553 12.0729 12.6483 12.0759L13.0461 12.9934C13.0678 12.984 13.089 12.9741 13.1008 12.9686C13.1151 12.9619 13.1217 12.9589 13.1265 12.9569L12.7397 12.0348ZM12.6475 12.0763C12.4928 12.1437 12.3417 12.2171 12.1935 12.2956L12.6619 13.1791C12.7891 13.1117 12.9173 13.0495 13.047 12.993L12.6475 12.0763ZM12.1943 12.2952C12.1537 12.3166 12.1039 12.3427 12.0545 12.3705L12.5446 13.2421C12.5798 13.2224 12.6161 13.2033 12.6611 13.1796L12.1943 12.2952ZM12.0554 12.37C11.8877 12.4638 11.7172 12.5657 11.5494 12.6802L12.1128 13.5064C12.249 13.4135 12.3927 13.3272 12.5438 13.2426L12.0554 12.37ZM11.5517 12.6786C11.5328 12.6914 11.5166 12.7035 11.5083 12.7096C11.503 12.7136 11.5009 12.7151 11.4981 12.7172C11.4958 12.7189 11.4952 12.7193 11.4954 12.7191L12.071 13.5369C12.0792 13.5311 12.0866 13.5258 12.0922 13.5216C12.0973 13.5178 12.1032 13.5134 12.1058 13.5115C12.1133 13.5059 12.113 13.5062 12.1105 13.5079L11.5517 12.6786ZM11.4979 12.7174C11.3473 12.822 11.2023 12.9332 11.0624 13.048L11.697 13.8209C11.8195 13.7203 11.9431 13.6257 12.0685 13.5387L11.4979 12.7174ZM11.0634 13.0472C11.0232 13.08 10.9811 13.115 10.9386 13.1518L11.5933 13.9077C11.6257 13.8796 11.6597 13.8514 11.696 13.8217L11.0634 13.0472ZM10.9402 13.1504C10.7898 13.2796 10.6377 13.4179 10.4902 13.5695L11.2072 14.2666C11.3272 14.1432 11.4555 14.026 11.5917 13.909L10.9402 13.1504ZM10.4904 13.5693C8.72525 15.383 8.07303 18.0359 8.78078 20.4923L9.74169 20.2154C9.13173 18.0984 9.69643 15.8189 11.207 14.2668L10.4904 13.5693ZM8.78076 20.4922C9.09987 21.6003 9.6906 22.6201 10.4905 23.4429L11.2075 22.7458C10.5229 22.0417 10.0156 21.1665 9.74171 20.2155L8.78076 20.4922ZM10.4905 23.4429L10.9083 23.8726L11.6253 23.1755L11.2075 22.7458L10.4905 23.4429ZM10.9083 23.8726L11.9791 24.974L12.6961 24.2769L11.6253 23.1755L10.9083 23.8726ZM11.9791 24.974L18.4849 31.6655L19.2019 30.9684L12.6961 24.2769L11.9791 24.974ZM18.4849 31.6655L18.6265 31.8111L19.3435 31.114L19.2019 30.9684L18.4849 31.6655ZM18.6265 31.8111L21.1401 34.3964L21.857 33.6993L19.3435 31.114L18.6265 31.8111ZM21.8571 34.3963L32.5475 23.3991L31.8304 22.7021L21.14 33.6993L21.8571 34.3963ZM32.5505 23.396C33.3519 22.5571 33.917 21.555 34.2262 20.4809L33.2652 20.2042C33 21.1255 32.5155 21.9849 31.8274 22.7052L32.5505 23.396Z" fill="black" mask="url(#path-1-inside-1_345_1174)"/>
<path d="M44.9995 22.5317C44.9995 10.1076 34.9061 0 22.4998 0C10.0935 0 0.000156403 10.1076 0.000156403 22.5317C0.000156403 34.9558 10.0935 45.0634 22.4998 45.0634C34.9061 45.0634 44.9995 34.9558 44.9995 22.5317ZM0.319866 22.5317C0.319866 10.2843 10.2696 0.320162 22.4998 0.320162C34.73 0.320162 44.6798 10.2843 44.6798 22.5317C44.6798 34.7791 34.73 44.7432 22.4998 44.7432C10.2696 44.7432 0.319866 34.7791 0.319866 22.5317Z" fill="black"/>
<path d="M38.5938 28.3876C38.6219 28.3047 38.5806 28.2125 38.4976 28.1825C38.4152 28.1521 38.3234 28.195 38.2928 28.2781C35.8893 34.9034 29.5425 39.3547 22.4995 39.3547C22.4115 39.3547 22.3397 39.4263 22.3397 39.5148C22.3397 39.6032 22.4115 39.6748 22.4995 39.6748C29.6762 39.6748 36.1441 35.1388 38.5938 28.3876Z" fill="black"/>
<path d="M39.2989 22.5319C39.2989 23.0159 39.2783 23.5058 39.2371 23.9883C39.2365 23.9926 39.2365 23.9973 39.2365 24.002C39.2365 24.0843 39.2996 24.154 39.3826 24.1612C39.4707 24.1687 39.5481 24.1033 39.5556 24.0152C39.5974 23.524 39.6187 23.0247 39.6187 22.5319C39.6187 22.4434 39.5468 22.3718 39.4588 22.3718C39.3708 22.3718 39.2989 22.4434 39.2989 22.5319Z" fill="black"/>
</svg>
