<svg width="45" height="46" viewBox="0 0 45 46" fill="none" xmlns="http://www.w3.org/2000/svg">
<g filter="url(#filter0_d_809_1265)">
<mask id="path-1-inside-1_809_1265" fill="white">
<path d="M33.7457 20.3426C33.7522 20.3206 33.7564 20.2977 33.7626 20.2757C33.9476 19.6061 34.0261 18.9079 33.9924 18.2053C33.9876 18.1025 33.9783 18 33.9687 17.8972C33.9194 17.3751 33.8119 16.8529 33.6359 16.3409C33.3999 15.6537 33.0593 15.0235 32.6203 14.4597C32.4739 14.2717 32.3165 14.091 32.1484 13.9181C31.9398 13.7035 31.7182 13.5049 31.489 13.3273C31.4192 13.2729 31.3451 13.2245 31.2733 13.173C31.2057 13.1249 31.1401 13.0736 31.0709 13.0282C30.3841 12.5796 29.6121 12.2743 28.8096 12.1246C28.6077 12.087 28.4045 12.056 28.1995 12.0386C28.0294 12.0241 27.8588 12.0169 27.6876 12.0169C26.2128 12.0169 24.8159 12.5338 23.6914 13.4843C23.5306 13.6201 23.3757 13.7646 23.2265 13.9178L21.5582 15.6334C21.5416 15.6505 21.5199 15.6589 21.4985 15.6589C21.4769 15.6589 21.4552 15.6505 21.4389 15.6334L20.1884 14.3476L19.7706 13.9178C19.0284 13.1544 18.1071 12.5897 17.1062 12.2848C16.9626 12.241 16.8181 12.2031 16.6734 12.1704C16.6244 12.1591 16.5751 12.1518 16.5259 12.1417C16.4298 12.1223 16.3338 12.1026 16.2375 12.0878C16.1787 12.0789 16.1196 12.0734 16.0607 12.0661C15.974 12.0554 15.8876 12.0444 15.8008 12.0375C15.7378 12.0322 15.6747 12.0305 15.6113 12.0276C15.5288 12.0236 15.4463 12.0192 15.3638 12.0186C15.3177 12.0183 15.2715 12.0204 15.2256 12.0209C15.0758 12.023 14.9266 12.0305 14.7782 12.0435C14.7354 12.0473 14.6926 12.0499 14.6501 12.0545C14.4718 12.0739 14.2947 12.1006 14.1193 12.135C14.0816 12.1426 14.0444 12.1521 14.0067 12.1602C13.8609 12.1918 13.7164 12.2292 13.5731 12.2712C13.5283 12.2842 13.4836 12.2969 13.4391 12.3111C13.2682 12.3656 13.0992 12.4264 12.9331 12.4959C12.9041 12.5081 12.8759 12.5222 12.8472 12.5347C12.705 12.5967 12.5654 12.6644 12.4277 12.7374C12.3849 12.76 12.3418 12.7826 12.2996 12.8063C12.1402 12.8955 11.9831 12.9897 11.8311 13.0933C11.8147 13.1043 11.7992 13.1168 11.7832 13.1281C11.6452 13.2239 11.5109 13.3267 11.3797 13.4345C11.3414 13.4658 11.3034 13.4973 11.266 13.5298C11.1227 13.6528 10.9824 13.7806 10.8487 13.9181C9.21084 15.601 8.60238 18.0672 9.26124 20.3539C9.55772 21.3834 10.1068 22.331 10.849 23.0944L11.2668 23.5241L12.3376 24.6255L18.8434 31.317L18.985 31.4626L21.4985 34.0479L32.1889 23.0506C32.9337 22.271 33.4585 21.3403 33.7457 20.3426Z"/>
</mask>
<path d="M33.7457 20.3426C33.7522 20.3206 33.7564 20.2977 33.7626 20.2757C33.9476 19.6061 34.0261 18.9079 33.9924 18.2053C33.9876 18.1025 33.9783 18 33.9687 17.8972C33.9194 17.3751 33.8119 16.8529 33.6359 16.3409C33.3999 15.6537 33.0593 15.0235 32.6203 14.4597C32.4739 14.2717 32.3165 14.091 32.1484 13.9181C31.9398 13.7035 31.7182 13.5049 31.489 13.3273C31.4192 13.2729 31.3451 13.2245 31.2733 13.173C31.2057 13.1249 31.1401 13.0736 31.0709 13.0282C30.3841 12.5796 29.6121 12.2743 28.8096 12.1246C28.6077 12.087 28.4045 12.056 28.1995 12.0386C28.0294 12.0241 27.8588 12.0169 27.6876 12.0169C26.2128 12.0169 24.8159 12.5338 23.6914 13.4843C23.5306 13.6201 23.3757 13.7646 23.2265 13.9178L21.5582 15.6334C21.5416 15.6505 21.5199 15.6589 21.4985 15.6589C21.4769 15.6589 21.4552 15.6505 21.4389 15.6334L20.1884 14.3476L19.7706 13.9178C19.0284 13.1544 18.1071 12.5897 17.1062 12.2848C16.9626 12.241 16.8181 12.2031 16.6734 12.1704C16.6244 12.1591 16.5751 12.1518 16.5259 12.1417C16.4298 12.1223 16.3338 12.1026 16.2375 12.0878C16.1787 12.0789 16.1196 12.0734 16.0607 12.0661C15.974 12.0554 15.8876 12.0444 15.8008 12.0375C15.7378 12.0322 15.6747 12.0305 15.6113 12.0276C15.5288 12.0236 15.4463 12.0192 15.3638 12.0186C15.3177 12.0183 15.2715 12.0204 15.2256 12.0209C15.0758 12.023 14.9266 12.0305 14.7782 12.0435C14.7354 12.0473 14.6926 12.0499 14.6501 12.0545C14.4718 12.0739 14.2947 12.1006 14.1193 12.135C14.0816 12.1426 14.0444 12.1521 14.0067 12.1602C13.8609 12.1918 13.7164 12.2292 13.5731 12.2712C13.5283 12.2842 13.4836 12.2969 13.4391 12.3111C13.2682 12.3656 13.0992 12.4264 12.9331 12.4959C12.9041 12.5081 12.8759 12.5222 12.8472 12.5347C12.705 12.5967 12.5654 12.6644 12.4277 12.7374C12.3849 12.76 12.3418 12.7826 12.2996 12.8063C12.1402 12.8955 11.9831 12.9897 11.8311 13.0933C11.8147 13.1043 11.7992 13.1168 11.7832 13.1281C11.6452 13.2239 11.5109 13.3267 11.3797 13.4345C11.3414 13.4658 11.3034 13.4973 11.266 13.5298C11.1227 13.6528 10.9824 13.7806 10.8487 13.9181C9.21084 15.601 8.60238 18.0672 9.26124 20.3539C9.55772 21.3834 10.1068 22.331 10.849 23.0944L11.2668 23.5241L12.3376 24.6255L18.8434 31.317L18.985 31.4626L21.4985 34.0479L32.1889 23.0506C32.9337 22.271 33.4585 21.3403 33.7457 20.3426Z" fill="#F90909"/>
<path d="M33.7457 20.3426L33.266 20.2014L33.2652 20.2043L33.7457 20.3426ZM33.7626 20.2757L34.2439 20.4111L34.2445 20.4088L33.7626 20.2757ZM33.9924 18.2053L33.4929 18.2286L33.4929 18.2294L33.9924 18.2053ZM33.9687 17.8972L34.4666 17.8509L34.4665 17.8502L33.9687 17.8972ZM33.6359 16.3409L33.163 16.5033L33.163 16.5034L33.6359 16.3409ZM32.6203 14.4597L33.0148 14.1525L33.0147 14.1524L32.6203 14.4597ZM31.489 13.3273L31.1815 13.7216L31.1828 13.7226L31.489 13.3273ZM31.2733 13.173L31.5649 12.7668L31.5631 12.7656L31.2733 13.173ZM31.0709 13.0282L31.3452 12.6102L31.3443 12.6096L31.0709 13.0282ZM28.8096 12.1246L28.9013 11.6331L28.9013 11.6331L28.8096 12.1246ZM28.1995 12.0386L28.1571 12.5368L28.1572 12.5368L28.1995 12.0386ZM23.6914 13.4843L24.014 13.8662L24.0141 13.8662L23.6914 13.4843ZM23.2265 13.9178L22.8683 13.5689L22.868 13.5692L23.2265 13.9178ZM21.5582 15.6334L21.1998 15.2848L21.1997 15.2849L21.5582 15.6334ZM21.4389 15.6334L21.8003 15.2879L21.7973 15.2848L21.4389 15.6334ZM20.1884 14.3476L19.8299 14.6961L19.83 14.6962L20.1884 14.3476ZM19.7706 13.9178L19.4121 14.2664L19.4121 14.2664L19.7706 13.9178ZM17.1062 12.2848L17.2519 11.8065L17.2518 11.8065L17.1062 12.2848ZM16.6734 12.1704L16.5611 12.6576L16.5631 12.6581L16.6734 12.1704ZM16.5259 12.1417L16.6266 11.652L16.6249 11.6516L16.5259 12.1417ZM16.2375 12.0878L16.3133 11.5936L16.3129 11.5936L16.2375 12.0878ZM16.0607 12.0661L15.9994 12.5623L15.9997 12.5624L16.0607 12.0661ZM15.8008 12.0375L15.7596 12.5358L15.7609 12.5359L15.8008 12.0375ZM15.6113 12.0276L15.5868 12.527L15.5885 12.5271L15.6113 12.0276ZM15.3638 12.0186L15.3674 11.5186L15.367 11.5186L15.3638 12.0186ZM15.2256 12.0209L15.2193 11.521L15.2188 11.521L15.2256 12.0209ZM14.7782 12.0435L14.7344 11.5455L14.7344 11.5455L14.7782 12.0435ZM14.6501 12.0545L14.7042 12.5516L14.7043 12.5516L14.6501 12.0545ZM14.1193 12.135L14.0229 11.6444L14.0215 11.6447L14.1193 12.135ZM14.0067 12.1602L13.9016 11.6714L13.9009 11.6716L14.0067 12.1602ZM13.5731 12.2712L13.7128 12.7512L13.7137 12.751L13.5731 12.2712ZM13.4391 12.3111L13.5908 12.7875L13.591 12.7875L13.4391 12.3111ZM12.9331 12.4959L12.7401 12.0346L12.7397 12.0348L12.9331 12.4959ZM12.8472 12.5347L12.6483 12.076L12.6475 12.0763L12.8472 12.5347ZM12.4277 12.7374L12.6611 13.1796L12.6619 13.1792L12.4277 12.7374ZM12.2996 12.8063L12.5438 13.2426L12.5446 13.2422L12.2996 12.8063ZM11.8311 13.0933L12.1105 13.508L12.1128 13.5064L11.8311 13.0933ZM11.7832 13.1281L12.0685 13.5387L12.071 13.537L11.7832 13.1281ZM11.3797 13.4345L11.696 13.8217L11.697 13.8209L11.3797 13.4345ZM11.266 13.5298L11.5917 13.9091L11.5933 13.9077L11.266 13.5298ZM10.8487 13.9181L11.207 14.2668L11.2072 14.2667L10.8487 13.9181ZM9.26124 20.3539L9.74171 20.2155L9.74169 20.2154L9.26124 20.3539ZM10.849 23.0944L11.2075 22.7458L11.2075 22.7458L10.849 23.0944ZM11.2668 23.5241L10.9083 23.8727L10.9083 23.8727L11.2668 23.5241ZM12.3376 24.6255L12.6961 24.2769L12.6961 24.2769L12.3376 24.6255ZM18.8434 31.317L19.2019 30.9684L19.2019 30.9684L18.8434 31.317ZM21.4985 34.0479L21.1401 34.3964L21.4986 34.7652L21.8571 34.3964L21.4985 34.0479ZM32.1889 23.0506L32.5475 23.3992L32.5505 23.396L32.1889 23.0506ZM34.2254 20.4837C34.233 20.4578 34.2385 20.434 34.241 20.4236C34.2444 20.4091 34.2444 20.4095 34.2439 20.4111L33.2813 20.1402C33.2746 20.1639 33.2694 20.1867 33.2675 20.1947C33.2647 20.2068 33.2649 20.2054 33.266 20.2015L34.2254 20.4837ZM34.2445 20.4088C34.4436 19.6883 34.5281 18.937 34.4918 18.1813L33.4929 18.2294C33.5242 18.8788 33.4515 19.524 33.2807 20.1425L34.2445 20.4088ZM34.4918 18.1821C34.4864 18.0662 34.4761 17.9529 34.4666 17.8509L33.4709 17.9436C33.4805 18.0471 33.4887 18.1389 33.4929 18.2286L34.4918 18.1821ZM34.4665 17.8502C34.4138 17.2913 34.2984 16.7302 34.1088 16.1784L33.163 16.5034C33.3254 16.9757 33.4251 17.4588 33.4709 17.9442L34.4665 17.8502ZM34.1088 16.1785C33.8551 15.4397 33.4881 14.7605 33.0148 14.1525L32.2258 14.7668C32.6304 15.2866 32.9448 15.8677 33.163 16.5033L34.1088 16.1785ZM33.0147 14.1524C32.857 13.95 32.6876 13.7555 32.5069 13.5696L31.7899 14.2667C31.9453 14.4265 32.0907 14.5935 32.2259 14.7669L33.0147 14.1524ZM32.5069 13.5696C32.2826 13.3389 32.0436 13.1245 31.7952 12.932L31.1828 13.7226C31.3928 13.8852 31.5969 14.0682 31.7899 14.2667L32.5069 13.5696ZM31.7964 12.933C31.7182 12.872 31.6108 12.7998 31.5649 12.7668L30.9817 13.5791C31.0794 13.6493 31.1201 13.6738 31.1815 13.7216L31.7964 12.933ZM31.5631 12.7656C31.5226 12.7367 31.4224 12.6608 31.3452 12.6102L30.7965 13.4462C30.8579 13.4865 30.8889 13.5131 30.9835 13.5804L31.5631 12.7656ZM31.3443 12.6096C30.6011 12.1241 29.767 11.7946 28.9013 11.6331L28.7179 12.6161C29.4571 12.7541 30.1672 13.0351 30.7974 13.4468L31.3443 12.6096ZM28.9013 11.6331C28.689 11.5935 28.4684 11.5596 28.2417 11.5404L28.1572 12.5368C28.3405 12.5524 28.5265 12.5804 28.718 12.6161L28.9013 11.6331ZM28.2419 11.5404C28.0577 11.5247 27.8729 11.5169 27.6876 11.5169V12.5169C27.8447 12.5169 28.0011 12.5235 28.1571 12.5368L28.2419 11.5404ZM27.6876 11.5169C26.0934 11.5169 24.5825 12.0765 23.3686 13.1024L24.0141 13.8662C25.0494 12.9912 26.3321 12.5169 27.6876 12.5169V11.5169ZM23.3687 13.1023C23.1952 13.2489 23.0286 13.4044 22.8683 13.5689L23.5847 14.2667C23.7229 14.1248 23.8659 13.9914 24.014 13.8662L23.3687 13.1023ZM22.868 13.5692L21.1998 15.2848L21.9167 15.982L23.585 14.2664L22.868 13.5692ZM21.1997 15.2849C21.2799 15.2025 21.3887 15.1589 21.4985 15.1589V16.1589C21.6512 16.1589 21.8034 16.0985 21.9167 15.982L21.1997 15.2849ZM21.4985 15.1589C21.6065 15.1589 21.7176 15.2014 21.8003 15.2879L21.0774 15.9789C21.1927 16.0996 21.3473 16.1589 21.4985 16.1589V15.1589ZM21.7973 15.2848L20.5469 13.999L19.83 14.6962L21.0804 15.982L21.7973 15.2848ZM20.5469 13.999L20.1291 13.5693L19.4121 14.2664L19.8299 14.6961L20.5469 13.999ZM20.1291 13.5693C19.3291 12.7465 18.3351 12.1365 17.2519 11.8065L16.9604 12.7631C17.8792 13.043 18.7276 13.5624 19.4121 14.2664L20.1291 13.5693ZM17.2518 11.8065C17.0959 11.759 16.9397 11.718 16.7837 11.6827L16.5631 12.6581C16.6966 12.6882 16.8292 12.7231 16.9605 12.7631L17.2518 11.8065ZM16.7857 11.6832C16.7492 11.6747 16.715 11.6684 16.6895 11.6637C16.6608 11.6585 16.6441 11.6556 16.6266 11.652L16.4251 12.6315C16.5252 12.652 16.506 12.6449 16.5611 12.6576L16.7857 11.6832ZM16.6249 11.6516C16.5323 11.6329 16.4237 11.6106 16.3133 11.5936L16.1617 12.5821C16.2439 12.5947 16.3274 12.6117 16.4268 12.6318L16.6249 11.6516ZM16.3129 11.5936C16.2458 11.5833 16.1597 11.5745 16.1218 11.5699L15.9997 12.5624C16.0794 12.5722 16.1115 12.5744 16.1621 12.5821L16.3129 11.5936ZM16.122 11.5699C16.039 11.5596 15.9406 11.547 15.8408 11.5391L15.7609 12.5359C15.8345 12.5418 15.909 12.5512 15.9994 12.5623L16.122 11.5699ZM15.842 11.5392C15.7667 11.5329 15.6855 11.5305 15.6342 11.5281L15.5885 12.5271C15.6639 12.5305 15.7088 12.5316 15.7596 12.5358L15.842 11.5392ZM15.6359 11.5282C15.5569 11.5243 15.4627 11.5193 15.3674 11.5186L15.3603 12.5186C15.43 12.5191 15.5007 12.5228 15.5868 12.527L15.6359 11.5282ZM15.367 11.5186C15.3187 11.5183 15.2401 11.5207 15.2193 11.521L15.2319 12.5209C15.3029 12.52 15.3166 12.5183 15.3607 12.5186L15.367 11.5186ZM15.2188 11.521C15.0568 11.5232 14.8952 11.5313 14.7344 11.5455L14.8219 12.5416C14.9579 12.5297 15.0948 12.5228 15.2324 12.5209L15.2188 11.521ZM14.7344 11.5455C14.7117 11.5475 14.6431 11.5523 14.5959 11.5575L14.7043 12.5516C14.742 12.5475 14.7591 12.5471 14.822 12.5416L14.7344 11.5455ZM14.596 11.5575C14.4042 11.5784 14.213 11.6071 14.0229 11.6444L14.2157 12.6257C14.3765 12.5941 14.5395 12.5695 14.7042 12.5516L14.596 11.5575ZM14.0215 11.6447C13.9907 11.6509 13.9017 11.6714 13.9016 11.6714L14.1118 12.6491C14.1872 12.6329 14.1725 12.6343 14.2172 12.6254L14.0215 11.6447ZM13.9009 11.6716C13.7421 11.7059 13.586 11.7464 13.4325 11.7913L13.7137 12.751C13.8468 12.712 13.9796 12.6777 14.1125 12.6489L13.9009 11.6716ZM13.4334 11.7911C13.3927 11.8029 13.3394 11.8181 13.2871 11.8348L13.591 12.7875C13.6277 12.7758 13.664 12.7655 13.7128 12.7512L13.4334 11.7911ZM13.2873 11.8347C13.1047 11.8929 12.9217 11.9586 12.7401 12.0346L13.1261 12.9571C13.2767 12.8941 13.4317 12.8382 13.5908 12.7875L13.2873 11.8347ZM12.7397 12.0348C12.7155 12.045 12.6935 12.0552 12.6793 12.0618C12.6627 12.0695 12.6553 12.0729 12.6483 12.076L13.0461 12.9934C13.0678 12.984 13.089 12.9741 13.1008 12.9686C13.1151 12.9619 13.1217 12.959 13.1265 12.957L12.7397 12.0348ZM12.6475 12.0763C12.4928 12.1437 12.3417 12.2171 12.1935 12.2956L12.6619 13.1792C12.7891 13.1118 12.9173 13.0496 13.047 12.9931L12.6475 12.0763ZM12.1943 12.2952C12.1537 12.3166 12.1039 12.3428 12.0545 12.3705L12.5446 13.2422C12.5798 13.2224 12.6161 13.2034 12.6611 13.1796L12.1943 12.2952ZM12.0554 12.37C11.8877 12.4639 11.7172 12.5658 11.5494 12.6802L12.1128 13.5064C12.249 13.4135 12.3927 13.3272 12.5438 13.2426L12.0554 12.37ZM11.5517 12.6787C11.5328 12.6914 11.5166 12.7035 11.5083 12.7097C11.503 12.7136 11.5009 12.7151 11.4981 12.7172C11.4958 12.7189 11.4952 12.7194 11.4954 12.7192L12.071 13.537C12.0792 13.5311 12.0866 13.5258 12.0922 13.5216C12.0973 13.5179 12.1032 13.5135 12.1058 13.5115C12.1133 13.5059 12.113 13.5063 12.1105 13.508L11.5517 12.6787ZM11.4979 12.7175C11.3473 12.8221 11.2023 12.9332 11.0624 13.048L11.697 13.8209C11.8195 13.7203 11.9431 13.6258 12.0685 13.5387L11.4979 12.7175ZM11.0634 13.0472C11.0232 13.0801 10.9811 13.115 10.9386 13.1518L11.5933 13.9077C11.6257 13.8796 11.6597 13.8514 11.696 13.8217L11.0634 13.0472ZM10.9402 13.1504C10.7898 13.2797 10.6377 13.4179 10.4902 13.5696L11.2072 14.2667C11.3272 14.1432 11.4555 14.026 11.5917 13.9091L10.9402 13.1504ZM10.4904 13.5694C8.72525 15.383 8.07303 18.0359 8.78078 20.4923L9.74169 20.2154C9.13173 18.0985 9.69643 15.8189 11.207 14.2668L10.4904 13.5694ZM8.78076 20.4922C9.09987 21.6003 9.6906 22.6202 10.4905 23.4429L11.2075 22.7458C10.5229 22.0418 10.0156 21.1665 9.74171 20.2155L8.78076 20.4922ZM10.4905 23.4429L10.9083 23.8727L11.6253 23.1756L11.2075 22.7458L10.4905 23.4429ZM10.9083 23.8727L11.9791 24.974L12.6961 24.2769L11.6253 23.1756L10.9083 23.8727ZM11.9791 24.974L18.4849 31.6655L19.2019 30.9684L12.6961 24.2769L11.9791 24.974ZM18.4849 31.6655L18.6265 31.8112L19.3435 31.1141L19.2019 30.9684L18.4849 31.6655ZM18.6265 31.8112L21.1401 34.3964L21.857 33.6993L19.3435 31.1141L18.6265 31.8112ZM21.8571 34.3964L32.5475 23.3991L31.8304 22.7021L21.14 33.6994L21.8571 34.3964ZM32.5505 23.396C33.3519 22.5571 33.917 21.555 34.2262 20.4809L33.2652 20.2043C33 21.1255 32.5155 21.9849 31.8274 22.7053L32.5505 23.396Z" fill="#FD0404" mask="url(#path-1-inside-1_809_1265)"/>
</g>
<path d="M44.9995 22.5317C44.9995 10.1076 34.9061 0 22.4998 0C10.0935 0 0.00015495 10.1076 0.00015495 22.5317C0.00015495 34.9558 10.0935 45.0634 22.4998 45.0634C34.9061 45.0634 44.9995 34.9558 44.9995 22.5317ZM0.319866 22.5317C0.319866 10.2843 10.2696 0.320162 22.4998 0.320162C34.73 0.320162 44.6798 10.2843 44.6798 22.5317C44.6798 34.7791 34.73 44.7432 22.4998 44.7432C10.2696 44.7432 0.319866 34.7791 0.319866 22.5317Z" fill="black"/>
<path d="M38.5938 28.3875C38.6219 28.3047 38.5806 28.2124 38.4976 28.1824C38.4152 28.1521 38.3234 28.1949 38.2928 28.2781C35.8893 34.9033 29.5425 39.3546 22.4995 39.3546C22.4115 39.3546 22.3397 39.4262 22.3397 39.5147C22.3397 39.6032 22.4115 39.6748 22.4995 39.6748C29.6762 39.6748 36.1441 35.1388 38.5938 28.3875Z" fill="black"/>
<path d="M39.2989 22.5319C39.2989 23.0159 39.2783 23.5058 39.2371 23.9883C39.2365 23.9926 39.2365 23.9973 39.2365 24.002C39.2365 24.0842 39.2996 24.154 39.3826 24.1612C39.4707 24.1687 39.5481 24.1033 39.5556 24.0151C39.5974 23.524 39.6187 23.0246 39.6187 22.5319C39.6187 22.4434 39.5468 22.3718 39.4588 22.3718C39.3708 22.3718 39.2989 22.4434 39.2989 22.5319Z" fill="black"/>
<defs>
<filter id="filter0_d_809_1265" x="5" y="12.0169" width="33" height="30.031" filterUnits="userSpaceOnUse" color-interpolation-filters="sRGB">
<feFlood flood-opacity="0" result="BackgroundImageFix"/>
<feColorMatrix in="SourceAlpha" type="matrix" values="0 0 0 0 0 0 0 0 0 0 0 0 0 0 0 0 0 0 127 0" result="hardAlpha"/>
<feOffset dy="4"/>
<feGaussianBlur stdDeviation="2"/>
<feComposite in2="hardAlpha" operator="out"/>
<feColorMatrix type="matrix" values="0 0 0 0 0 0 0 0 0 0 0 0 0 0 0 0 0 0 0.25 0"/>
<feBlend mode="normal" in2="BackgroundImageFix" result="effect1_dropShadow_809_1265"/>
<feBlend mode="normal" in="SourceGraphic" in2="effect1_dropShadow_809_1265" result="shape"/>
</filter>
</defs>
</svg>
