<svg width="50" height="50" viewBox="0 0 45 46" fill="none" xmlns="http://www.w3.org/2000/svg">
<path d="M44.9995 22.5317C44.9995 10.1076 34.9061 0 22.4998 0C10.0935 0 0.000156403 10.1076 0.000156403 22.5317C0.000156403 34.9558 10.0935 45.0634 22.4998 45.0634C34.9061 45.0634 44.9995 34.9558 44.9995 22.5317ZM0.319866 22.5317C0.319866 10.2843 10.2696 0.320162 22.4998 0.320162C34.73 0.320162 44.6798 10.2843 44.6798 22.5317C44.6798 34.7791 34.73 44.7432 22.4998 44.7432C10.2696 44.7432 0.319866 34.7791 0.319866 22.5317Z" fill="black"/>
<path d="M38.5938 28.3876C38.6219 28.3047 38.5806 28.2125 38.4976 28.1825C38.4152 28.1521 38.3234 28.195 38.2928 28.2781C35.8893 34.9034 29.5425 39.3547 22.4995 39.3547C22.4115 39.3547 22.3397 39.4263 22.3397 39.5148C22.3397 39.6032 22.4115 39.6748 22.4995 39.6748C29.6762 39.6748 36.1441 35.1388 38.5938 28.3876Z" fill="black"/>
<path d="M39.2989 22.5319C39.2989 23.0159 39.2783 23.5058 39.2371 23.9883C39.2365 23.9926 39.2365 23.9973 39.2365 24.002C39.2365 24.0843 39.2996 24.154 39.3826 24.1612C39.4707 24.1687 39.5481 24.1033 39.5556 24.0152C39.5974 23.524 39.6187 23.0247 39.6187 22.5319C39.6187 22.4434 39.5468 22.3718 39.4588 22.3718C39.3708 22.3718 39.2989 22.4434 39.2989 22.5319Z" fill="black"/>
<path d="M21.272 11.0155H34.4681V24.2287" stroke="black" stroke-width="0.5" stroke-miterlimit="10"/>
<path d="M34.468 11.0155L10 35.519" stroke="black" stroke-width="0.5" stroke-miterlimit="10"/>
</svg>
